<?xml version="1.0" standalone="no"?>
<!DOCTYPE svg PUBLIC "-//W3C//DTD SVG 1.1//EN" "http://www.w3.org/Graphics/SVG/1.1/DTD/svg11.dtd" >
<svg xmlns="http://www.w3.org/2000/svg" xmlns:xlink="http://www.w3.org/1999/xlink" version="1.1" viewBox="-10 0 266 256">
   <path fill="currentColor"
d="M98 -4q28 5 37 17q3 4 0 6q-3 3 -7 0q-2 -1 -5 -2q-5 -3 -9 -4q-6 -1 -3 -5q4 -1 -14 -10q-5 -3 1 -2zM156 14q3 -5 8 -3q12 2 19 6q2 2 -3 3q-13 -2 -31 4q-1 0 -4 1q-20 6 -30 14q-3 2 -4 2t1 -3q7 -5 8 -7q1 -1 -4 0q-8 3 -26 7q-10 3 -24 0q-4 -2 0 -2q16 1 71 -14
q15 -3 19 -8zM154 35q5 0 8 4q2 2 2 3q0 2 -3 3q-6 1 -9 5q-10 10 -29 25q-3 3 -5 4q30 -7 45 -11q0 -3 2 -5t3 -1q7 4 14 7h1q2 1 1 3q-1 3 -6 2q-8 -1 -22 2q-18 4 -44 15q-9 3 -4 0q10 -5 18 -8q4 -2 1 -2q-21 5 -48 13h-1q-8 2 -17 2q-5 0 1 -2q3 -1 10 -3q18 -6 27 -8
q-5 0 -7 -8q-1 -5 2 -10l6 -9q1 -2 2 -3q3 -3 2 2q-3 7 -2 11q1 3 6 -1q9 -7 2 2q-1 1 -2 3q-6 8 -5 12q26 -13 43 -34l2 -2q4 -7 2 -9q-1 -2 4 -2zM93 101q5 -2 0 2q-2 2 -2 6v1q2 4 0 4q-6 0 -9 11q-16 65 -53 109q-5 3 -2 -2q45 -61 51 -108q2 -7 1 -10v-1q-5 -3 14 -12z
M141 102q1 0 2 1q4 1 5 2q2 3 0 4q-7 2 -14 9q-19 21 -41 30q-4 2 0 -1q24 -14 39 -35q0 -1 1 -2q2 -3 3 -5q3 -5 5 -3zM142 135q3 1 8 2q3 0 10 3q2 4 0 5q-11 2 -17 7q-32 25 -53 35q-2 1 -1 -1q25 -17 45 -34q11 -10 5 -14q-2 -1 -1 -2q1 -2 4 -1zM151 175q3 1 7 1
q4 1 7 1q2 4 -3 6q-5 0 -14 7q-31 24 -62 37q-2 1 -2 0q0 -2 2 -3q18 -8 46 -30q6 -4 10 -8l1 -2q5 -10 8 -9z" />
</svg>
