<svg width="273" height="256" xmlns="http://www.w3.org/2000/svg">

 <g>
  <title>background</title>
  <rect fill="none" id="canvas_background" height="402" width="582" y="-1" x="-1"/>
 </g>
 <g>
  <title>Layer 1</title>
  <path stroke="null" id="svg_1" d="m71.34879,19.860642q3.263835,-4.72132 11.097039,0q1.958301,0.944264 1.958301,1.888528q0,1.888528 -1.958301,2.832792q-7.833204,9.442639 -24.15238,53.823042q-18.277477,50.990251 -42.429856,90.649334q-3.916602,4.72132 -0.652767,-0.944264q32.638351,-67.042737 53.526896,-129.364154q5.874903,-17.941014 2.611068,-14.163959q-1.305534,0 -1.305534,-1.888528t1.305534,-2.832792zm14.360874,13.219695q5.874903,0.944264 11.749806,16.99675q11.097039,30.216445 27.416215,53.823042q3.916602,6.609847 9.138738,4.72132q16.971943,-0.944264 29.374516,4.72132q2.611068,0.944264 2.611068,2.832792q0,0.944264 -2.611068,0q-13.708107,-1.888528 -24.805147,0q-6.52767,1.888528 -13.05534,-7.554111q-16.971943,-24.550861 -30.68005,-58.544362q-4.569369,-10.386903 -9.138738,-15.108222q-2.611068,-1.888528 0,-1.888528zm7.180437,59.488626l5.874903,2.832792q1.958301,0 1.958301,1.888528q0,2.832792 -1.958301,3.777056q-7.180437,2.832792 -22.846846,11.331167q1.305534,0 -2.611068,1.888528q-3.916602,2.832792 -13.708107,0.944264q-1.958301,-0.944264 -1.958301,-2.832792q0,-0.944264 1.958301,-1.888528q21.541312,-6.609847 26.763448,-15.108222q2.611068,-7.554111 6.52767,-2.832792zm-18.930244,31.160709q9.791505,4.72132 8.485971,10.386903q5.874903,-1.888528 7.833204,-4.72132q-0.652767,0 0,-0.944264q0,-4.72132 5.874903,-2.832792q7.180437,-1.888528 13.05534,6.609847q1.305534,1.888528 0.652767,3.777056t-2.611068,0.944264q-9.791505,-3.777056 -24.805147,2.832792q-0.652767,8.498375 -0.652767,17.941014q13.708107,-5.665583 24.15238,-8.498375q3.263835,-0.944264 6.52767,3.777056q1.305534,0.944264 1.305534,2.832792q-0.652767,1.888528 -1.958301,1.888528q-3.263835,-0.944264 -10.444272,7.554111q-10.444272,10.386903 -20.235778,18.885278l0,3.777056q-0.652767,3.777056 -0.652767,7.554111q-0.652767,3.777056 -1.305534,3.777056q-1.305534,0 -2.611068,-3.777056q-0.652767,-2.832792 -1.958301,-7.554111q-1.958301,0.944264 -4.569369,2.832792q-1.305534,0.944264 -1.958301,-0.944264q0,-0.944264 1.958301,-1.888528q1.958301,-1.888528 3.916602,-2.832792q0,-4.72132 1.305534,-9.442639q0.652767,-2.832792 0.652767,-8.498375q-9.791505,5.665583 -14.360874,16.99675q-1.958301,3.777056 -3.916602,0q-3.263835,-9.442639 0.652767,-16.052486q2.611068,-3.777056 0.652767,0.944264q-1.305534,3.777056 2.611068,3.777056q3.263835,-3.777056 10.444272,-8.498375l3.916602,-2.832792q0,-6.609847 -1.305534,-17.941014q-1.305534,0.944264 -2.611068,0.944264q-5.222136,2.832792 -7.833204,4.72132q-5.874903,2.832792 -11.097039,-0.944264q-1.305534,-0.944264 -1.305534,-1.888528t1.305534,-0.944264q6.52767,-0.944264 21.541312,-7.554111q-0.652767,-4.72132 -1.958301,-9.442639q-0.652767,-1.888528 -0.652767,-2.832792q-1.305534,-1.888528 -0.652767,-2.832792q0.652767,0 2.611068,0.944264zm28.068982,32.104973q1.305534,-1.888528 0.652767,-2.832792t-2.611068,0q-9.138738,1.888528 -18.277477,10.386903q0,12.275431 -0.652767,16.052486q11.749806,-10.386903 20.888545,-23.606598zm12.402573,41.547612q3.263835,-5.665583 7.833204,-1.888528q5.874903,5.665583 10.444272,6.609847q5.222136,2.832792 7.833204,7.554111q1.305534,2.832792 0.652767,3.777056q0,1.888528 -1.958301,1.888528q-5.222136,0.944264 -11.097039,-7.554111q-1.958301,-4.72132 -19.583011,-3.777056q-45.040925,0 -73.762673,15.108222q-3.916602,2.832792 -9.138738,0.944264l-1.305534,0q-3.263835,-0.944264 0,-1.888528q7.180437,0 18.930244,-5.665583q30.68005,-12.275431 63.971168,-11.331167q5.874903,0.944264 7.180437,-3.777056z" fill="currentColor"/>
  <g stroke="null" id="svg_6">
   <path stroke="null" id="svg_5" d="m249.49497,88.853164q3.858724,4.671042 0,8.174323q-2.315234,3.503281 -3.858724,11.677605q-9.260937,79.407712 -21.608853,105.098443q-8.489192,17.516407 -16.978384,25.69073q-2.315234,2.335521 -3.086979,1.16776q-0.771745,0 -0.771745,-3.503281q-0.771745,-5.838802 -4.630468,-8.174323q-13.119661,-15.180886 -22.380597,-31.529533q-3.086979,-5.838802 1.543489,-1.16776q10.804426,14.013126 27.011066,25.69073q6.945703,7.006563 10.804426,-1.16776q11.576171,-15.180886 18.521874,-59.555784q6.945703,-43.207138 4.630468,-81.743233q-5.402213,-23.35521 -27.011066,-23.35521q-20.065363,1.16776 -39.358982,14.013126l-0.771745,0q-6.173958,2.335521 -12.347916,2.335521q-9.260937,21.019689 -24.695832,37.368335q-3.858724,3.503281 0,-2.335521q20.065363,-25.69073 30.86979,-61.891305q3.858724,-12.845365 1.543489,-29.194012q0,-3.503281 0.771745,-3.503281t1.543489,3.503281q6.945703,18.684168 3.858724,22.187449q-5.402213,17.516407 -11.576171,30.361772q27.011066,-15.180886 49.391663,-16.348647q22.380597,-3.503281 38.587237,36.200575zm-47.076429,47.87818q-13.119661,22.187449 -26.239321,38.536096q-6.945703,8.174323 -12.347916,17.516407q-6.173958,7.006563 -10.804426,-4.671042q-0.771745,-3.503281 1.543489,-2.335521q1.543489,2.335521 8.489192,-3.503281q12.347916,-12.845365 37.043748,-47.87818q2.315234,-3.503281 3.086979,-2.335521t-0.771745,4.671042zm-11.576171,-24.52297q1.543489,2.335521 0.771745,4.671042q-0.771745,3.503281 -2.315234,2.335521q-4.630468,-1.16776 -8.489192,-1.16776q-3.858724,1.16776 -1.543489,-2.335521q3.858724,-2.335521 -13.891405,-10.509844q-3.858724,-2.335521 0.771745,-2.335521q16.978384,1.16776 24.695832,9.342084z" fill="currentColor"/>
  </g>
 </g>
</svg>