<?xml version="1.0" standalone="no"?>
<!DOCTYPE svg PUBLIC "-//W3C//DTD SVG 1.1//EN" "http://www.w3.org/Graphics/SVG/1.1/DTD/svg11.dtd" >
<svg xmlns="http://www.w3.org/2000/svg" xmlns:xlink="http://www.w3.org/1999/xlink" version="1.1" viewBox="-10 0 255 256">
   <path fill="currentColor"
d="M110 10q5 -5 17 0q3 1 3 2q0 2 -3 3q-12 10 -37 57q-28 54 -65 96q-6 5 -1 -1q50 -71 82 -137q9 -19 4 -15q-2 0 -2 -2t2 -3zM130 24q9 1 18 18q17 32 42 57q6 7 14 5q26 -1 45 5q4 1 4 3q0 1 -4 0q-21 -2 -38 0q-10 2 -20 -8q-26 -26 -47 -62q-7 -11 -14 -16q-4 -2 0 -2
zM141 87l9 3q3 0 3 2q0 3 -3 4q-11 3 -35 12q2 0 -4 2q-6 3 -21 1q-3 -1 -3 -3q0 -1 3 -2q33 -7 41 -16q4 -8 10 -3zM112 120q15 5 13 11q9 -2 12 -5q-1 0 0 -1q0 -5 9 -3q11 -2 20 7q2 2 1 4t-4 1q-15 -4 -38 3q-1 9 -1 19q21 -6 37 -9q5 -1 10 4q2 1 2 3q-1 2 -3 2
q-5 -1 -16 8q-16 11 -31 20v4q-1 4 -1 8q-1 4 -2 4q-2 0 -4 -4q-1 -3 -3 -8q-3 1 -7 3q-2 1 -3 -1q0 -1 3 -2q3 -2 6 -3q0 -5 2 -10q1 -3 1 -9q-15 6 -22 18q-3 4 -6 0q-5 -10 1 -17q4 -4 1 1q-2 4 4 4q5 -4 16 -9l6 -3q0 -7 -2 -19q-2 1 -4 1q-8 3 -12 5q-9 3 -17 -1
q-2 -1 -2 -2t2 -1q10 -1 33 -8q-1 -5 -3 -10q-1 -2 -1 -3q-2 -2 -1 -3q1 0 4 1zM155 154q2 -2 1 -3t-4 0q-14 2 -28 11q0 13 -1 17q18 -11 32 -25zM174 198q5 -6 12 -2q9 6 16 7q8 3 12 8q2 3 1 4q0 2 -3 2q-8 1 -17 -8q-3 -5 -30 -4q-69 0 -113 16q-6 3 -14 1h-2
q-5 -1 0 -2q11 0 29 -6q47 -13 98 -12q9 1 11 -4z"

d="M350 87q5 4 0 7q-3 3 -5 10q-12 68 -28 90q-11 15 -22 22q-3 2 -4 1q-1 0 -1 -3q-1 -5 -6 -7q-17 -13 -29 -27q-4 -5 2 -1q14 12 35 22q9 6 14 -1q15 -13 24 -51q9 -37 6 -70q-7 -20 -35 -20q-26 1 -51 12h-1q-8 2 -16 2q-12 18 -32 32q-5 3 0 -2q26 -22 40 -53
q5 -11 2 -25q0 -3 1 -3t2 3q9 16 5 19q-7 15 -15 26q35 -13 64 -14q29 -3 50 31zM295 128q-17 19 -34 33q-9 7 -16 15q-8 6 -14 -4q-1 -3 2 -2q2 2 11 -3q16 -11 48 -41q3 -3 4 -2t-1 4zM270 107q2 2 1 4q-1 3 -3 2q-6 -1 -11 -1q-5 1 -2 -2q5 -2 -18 -9q-5 -2 1 -2
q22 1 32 8z"
 />
</svg>
