<svg width="273" height="256" xmlns="http://www.w3.org/2000/svg">

 <g>
  <title>background</title>
  <rect fill="none" id="canvas_background" height="402" width="582" y="-1" x="-1"/>
 </g>
 <g>
  <title>Layer 1</title>
  <path stroke="null" id="svg_1" d="m51.516915,8.562854q1.800649,-2.646703 6.122207,0q1.08039,0.529341 1.08039,1.058681q0,1.058681 -1.08039,1.588022q-4.321558,5.293406 -13.324804,30.172413q-10.083636,28.584391 -23.40844,50.816695q-2.160779,2.646703 -0.36013,-0.529341q18.006492,-37.583181 29.530647,-72.519659q3.241169,-10.057471 1.440519,-7.940109q-0.72026,0 -0.72026,-1.058681t0.72026,-1.588022zm7.922856,7.410768q3.241169,0.529341 6.482337,9.52813q6.122207,16.938898 15.125453,30.172413q2.160779,3.705384 5.041818,2.646703q9.363376,-0.529341 16.205843,2.646703q1.440519,0.529341 1.440519,1.588022q0,0.529341 -1.440519,0q-7.562727,-1.058681 -13.684934,0q-3.601298,1.058681 -7.202597,-4.234725q-9.363376,-13.762855 -16.926102,-32.819116q-2.520909,-5.822746 -5.041818,-8.469449q-1.440519,-1.058681 0,-1.058681zm3.961428,33.348456l3.241169,1.588022q1.08039,0 1.08039,1.058681q0,1.588022 -1.08039,2.117362q-3.961428,1.588022 -12.604544,6.352087q0.72026,0 -1.440519,1.058681q-2.160779,1.588022 -7.562727,0.529341q-1.08039,-0.529341 -1.08039,-1.588022q0,-0.529341 1.08039,-1.058681q11.884285,-3.705384 14.765323,-8.469449q1.440519,-4.234725 3.601298,-1.588022zm-10.443765,17.468239q5.401948,2.646703 4.681688,5.822746q3.241169,-1.058681 4.321558,-2.646703q-0.36013,0 0,-0.529341q0,-2.646703 3.241169,-1.588022q3.961428,-1.058681 7.202597,3.705384q0.72026,1.058681 0.36013,2.117362t-1.440519,0.529341q-5.401948,-2.117362 -13.684934,1.588022q-0.36013,4.764065 -0.36013,10.057471q7.562727,-3.176043 13.324804,-4.764065q1.800649,-0.529341 3.601298,2.117362q0.72026,0.529341 0.72026,1.588022q-0.36013,1.058681 -1.08039,1.058681q-1.800649,-0.529341 -5.762077,4.234725q-5.762077,5.822746 -11.164025,10.586812l0,2.117362q-0.36013,2.117362 -0.36013,4.234725q-0.36013,2.117362 -0.72026,2.117362q-0.72026,0 -1.440519,-2.117362q-0.36013,-1.588022 -1.08039,-4.234725q-1.08039,0.529341 -2.520909,1.588022q-0.72026,0.529341 -1.08039,-0.529341q0,-0.529341 1.08039,-1.058681q1.08039,-1.058681 2.160779,-1.588022q0,-2.646703 0.72026,-5.293406q0.36013,-1.588022 0.36013,-4.764065q-5.401948,3.176043 -7.922856,9.52813q-1.08039,2.117362 -2.160779,0q-1.800649,-5.293406 0.36013,-8.99879q1.440519,-2.117362 0.36013,0.529341q-0.72026,2.117362 1.440519,2.117362q1.800649,-2.117362 5.762077,-4.764065l2.160779,-1.588022q0,-3.705384 -0.72026,-10.057471q-0.72026,0.529341 -1.440519,0.529341q-2.881039,1.588022 -4.321558,2.646703q-3.241169,1.588022 -6.122207,-0.529341q-0.72026,-0.529341 -0.72026,-1.058681t0.72026,-0.529341q3.601298,-0.529341 11.884285,-4.234725q-0.36013,-2.646703 -1.08039,-5.293406q-0.36013,-1.058681 -0.36013,-1.588022q-0.72026,-1.058681 -0.36013,-1.588022q0.36013,0 1.440519,0.529341zm15.485583,17.99758q0.72026,-1.058681 0.36013,-1.588022t-1.440519,0q-5.041818,1.058681 -10.083636,5.822746q0,6.881427 -0.36013,8.99879q6.482337,-5.822746 11.524155,-13.233514zm6.842467,23.290985q1.800649,-3.176043 4.321558,-1.058681q3.241169,3.176043 5.762077,3.705384q2.881039,1.588022 4.321558,4.234725q0.72026,1.588022 0.36013,2.117362q0,1.058681 -1.08039,1.058681q-2.881039,0.529341 -6.122207,-4.234725q-1.08039,-2.646703 -10.803895,-2.117362q-24.848959,0 -40.694672,8.469449q-2.160779,1.588022 -5.041818,0.529341l-0.72026,0q-1.800649,-0.529341 0,-1.058681q3.961428,0 10.443765,-3.176043q16.926102,-6.881427 35.292724,-6.352087q3.241169,0.529341 3.961428,-2.117362z" fill="currentColor"/>
  <path stroke="null" transform="rotate(-0.18440888822078705 124.27659606933118,65.50292205810561) " id="svg_2" d="m156.914126,45.641227q2.190442,2.43204 0,4.256076q-1.314265,1.82403 -2.190434,6.080112q-5.25706,41.344747 -12.266458,54.720991q-4.818964,9.120162 -9.637928,13.376244q-1.314265,1.21602 -1.752353,0.60801q-0.438088,0 -0.438088,-1.824036q-0.438088,-3.040056 -2.628522,-4.256076q-7.447494,-7.904142 -12.704546,-16.4163q-1.752353,-3.04005 0.876177,-0.60801q6.133229,7.296132 15.333068,13.376244q3.942787,3.648066 6.133229,-0.60801q6.571309,-7.904142 10.514104,-31.008564q3.942787,-22.496406 2.628522,-42.560773q-3.066611,-12.160218 -15.333068,-12.160218q-11.390281,0.60801 -22.342474,7.296132l-0.438088,0q-3.504699,1.21602 -7.009398,1.21602q-5.257052,10.944198 -14.018811,19.456356q-2.190434,1.82403 0,-1.216026q11.390281,-13.376238 17.52351,-32.224584q2.190442,-6.688122 0.876177,-15.200274q0,-1.82403 0.438088,-1.82403t0.876177,1.82403q3.942787,9.728178 2.190434,11.552208q-3.066611,9.120168 -6.571317,15.80829q15.333076,-7.904142 28.037614,-8.512158q12.704546,-1.82403 21.904385,18.848346zm-26.723349,24.928452q-7.447494,11.552208 -14.89498,20.06436q-3.942787,4.256076 -7.009406,9.120168q-3.504699,3.648066 -6.133229,-2.432046q-0.438088,-1.82403 0.876177,-1.21602q0.876177,1.21602 4.818964,-1.824036q7.009406,-6.688122 21.028209,-24.928452q1.314265,-1.82403 1.752353,-1.21602t-0.438088,2.432046zm-6.571317,-12.768234q0.876177,1.21602 0.438088,2.432046q-0.438088,1.82403 -1.314265,1.21602q-2.628522,-0.60801 -4.818964,-0.60801q-2.190434,0.60801 -0.876169,-1.21602q2.190434,-1.216026 -7.885582,-5.472102q-2.190442,-1.21602 0.438088,-1.21602q9.637928,0.60801 14.018803,4.864086z" fill="currentColor"/>
 </g>
</svg>