<?xml version="1.0" encoding="UTF-8" standalone="no"?>
<svg
   version="1.1"
   viewBox="-10 0 266 256"
   id="svg125"
   sodipodi:docname="uni5300_FZSJSJW--GB1-0.svg"
   inkscape:version="1.1 (c68e22c387, 2021-05-23)"
   xmlns:inkscape="http://www.inkscape.org/namespaces/inkscape"
   xmlns:sodipodi="http://sodipodi.sourceforge.net/DTD/sodipodi-0.dtd"
   xmlns="http://www.w3.org/2000/svg"
   xmlns:svg="http://www.w3.org/2000/svg">
  <defs
     id="defs129" />
  <sodipodi:namedview
     id="namedview127"
     pagecolor="#ffffff"
     bordercolor="#666666"
     borderopacity="1.0"
     inkscape:pageshadow="2"
     inkscape:pageopacity="0.0"
     inkscape:pagecheckerboard="0"
     showgrid="false"
     inkscape:zoom="3.1835938"
     inkscape:cx="133.02577"
     inkscape:cy="128"
     inkscape:window-width="1538"
     inkscape:window-height="1030"
     inkscape:window-x="210"
     inkscape:window-y="0"
     inkscape:window-maximized="0"
     inkscape:current-layer="svg125" />
  <path
     fill="currentColor"
     d="m 249.17269,78.22793 q 3.83951,4.672094 0,8.176164 -2.30372,3.504067 -3.83951,11.680241 -9.21482,79.425595 -21.50124,105.122115 -8.44692,17.52036 -16.89385,25.6965 -2.30371,2.33605 -3.0716,1.16803 -0.76792,0 -0.76792,-3.50407 -0.76789,-5.8401 -4.6074,-8.17615 -13.05432,-15.18431 -22.26916,-31.53665 -3.0716,-5.84011 1.53581,-1.16802 10.75061,14.01629 26.87656,25.69652 6.91113,7.00815 10.75064,-1.16802 11.51853,-15.1843 18.42963,-59.5692 6.91113,-43.21686 4.60741,-81.761649 -5.3753,-23.360472 -26.87655,-23.360472 -19.96545,1.168024 -39.163,14.016283 h -0.7679 q -6.14321,2.336047 -12.28644,2.336047 -9.2148,21.024425 -24.57285,37.376754 -3.8395,3.504067 0,-2.336048 19.96545,-25.696517 30.71608,-61.905246 3.83951,-12.848261 1.53579,-29.2005887 0,-3.5040711 0.76792,-3.5040711 0.7679,0 1.5358,3.5040711 6.9111,18.6883747 3.8395,22.1924447 -5.3753,17.520354 -11.51853,30.368613 26.87655,-15.184307 49.14574,-16.352329 22.26914,-3.504071 38.39507,36.208731 z m -46.84201,47.88896 q -13.05433,22.19245 -26.10867,38.54479 -6.9111,8.17616 -12.28642,17.52034 -6.14321,7.00816 -10.75061,-4.67209 -0.76792,-3.50407 1.53579,-2.33605 1.5358,2.33605 8.44692,-3.50407 12.28643,-12.84826 36.85929,-47.88897 2.3037,-3.50406 3.07159,-2.33604 0.76792,1.16802 -0.76789,4.67209 z M 190.81215,101.5884 q 1.53581,2.33604 0.76791,4.67209 -0.76791,3.50407 -2.30371,2.33606 -4.60741,-1.16802 -8.44692,-1.16802 -3.8395,1.16802 -1.5358,-2.33606 3.83951,-2.33605 -13.82223,-10.512213 -3.83952,-2.336048 0.76789,-2.336048 16.89385,1.16803 24.57286,9.344191 z"
     id="path123"
     style="stroke-width:0.94706" />
  <path
     fill="currentColor"
     d="m 59.411342,16.378166 q 3.169871,-4.679032 10.777564,0 1.901922,0.935807 1.901922,1.871613 0,1.871613 -1.901922,2.80742 -7.607693,9.358065 -23.45705,53.340971 -17.751281,50.53355 -41.208332,89.83742 -3.8038457,4.67904 -0.6339745,-0.9358 Q 36.588266,96.857526 56.875445,35.094296 q 5.705768,-17.780323 2.535897,-14.037097 -1.267949,0 -1.267949,-1.871613 0,-1.871613 1.267949,-2.80742 z m 13.947436,13.101291 q 5.705768,0.935807 11.411537,16.844517 10.777564,29.945809 26.626915,53.340971 3.80385,6.550645 8.87564,4.679035 16.48334,-0.93581 28.52885,4.67903 2.5359,0.93581 2.5359,2.80742 0,0.93581 -2.5359,0 -13.31346,-1.87161 -24.09102,0 -6.33975,1.87161 -12.67948,-7.48645 Q 95.547879,80.013009 82.234418,46.323974 77.796598,36.030103 73.358778,31.35107 q -2.535898,-1.871613 0,-1.871613 z m 6.973716,58.95581 5.70577,2.80742 q 1.901923,0 1.901923,1.871613 0,2.807419 -1.901923,3.743226 -6.973718,2.807419 -22.189102,11.229674 1.267949,0 -2.535897,1.87162 -3.803846,2.80742 -13.313461,0.9358 -1.901923,-0.9358 -1.901923,-2.80742 0,-0.9358 1.901923,-1.87161 20.921153,-6.550645 25.992947,-14.972903 2.535898,-7.486452 6.339743,-2.80742 z M 61.94724,119.31688 q 9.509614,4.67903 8.241666,10.29387 5.705768,-1.87161 7.607692,-4.67903 -0.633975,0 0,-0.93581 0,-4.67903 5.705768,-2.80742 6.973718,-1.87161 12.679487,6.55065 1.267949,1.87161 0.633974,3.74323 -0.633974,1.87161 -2.535897,0.9358 -9.509615,-3.74322 -24.091024,2.80742 -0.633975,8.42226 -0.633975,17.78033 13.313461,-5.61484 23.457051,-8.42226 3.169871,-0.93581 6.339743,3.74322 1.267945,0.93581 1.267945,2.80742 -0.633971,1.87162 -1.90192,1.87162 -3.169871,-0.93581 -10.143589,7.48645 -10.143589,10.29387 -19.653204,18.71613 v 3.74322 q -0.633974,3.74323 -0.633974,7.48646 -0.633975,3.74322 -1.267949,3.74322 -1.267949,0 -2.535897,-3.74322 -0.633975,-2.80742 -1.901924,-7.48646 -1.901923,0.93581 -4.43782,2.80742 -1.267948,0.93581 -1.901923,-0.9358 0,-0.93581 1.901923,-1.87162 1.901924,-1.87161 3.803847,-2.80742 0,-4.67903 1.267948,-9.35806 0.633974,-2.80742 0.633974,-8.42226 -9.509615,5.61484 -13.947435,16.84452 -1.901923,3.74322 -3.803846,0 -3.169872,-9.35807 0.633975,-15.90871 2.535896,-3.74323 0.633974,0.9358 -1.267949,3.74323 2.535897,3.74323 3.169872,-3.74323 10.14359,-8.42226 l 3.803845,-2.80742 q 0,-6.55064 -1.267949,-17.78032 -1.267948,0.9358 -2.535896,0.9358 -5.071795,2.80742 -7.607693,4.67904 -5.705768,2.80742 -10.777563,-0.93581 -1.267949,-0.93581 -1.267949,-1.87161 0,-0.93581 1.267949,-0.93581 6.339743,-0.93581 20.921152,-7.48645 -0.633973,-4.67903 -1.901923,-9.35807 -0.633973,-1.87161 -0.633973,-2.80742 -1.267949,-1.87161 -0.633975,-2.80742 0.633975,0 2.535898,0.93581 z m 27.260895,31.81742 q 1.267949,-1.87161 0.633975,-2.80742 -0.633975,-0.9358 -2.535898,0 -8.87564,1.87162 -17.751281,10.29387 0,12.16549 -0.633974,15.90871 11.411537,-10.29387 20.287178,-23.39516 z m 12.045515,41.17549 q 3.16987,-5.61484 7.60769,-1.87161 5.70577,5.61483 10.14359,6.55064 5.07179,2.80742 7.60769,7.48645 1.26795,2.80742 0.63397,3.74323 0,1.87161 -1.90192,1.87161 -5.0718,0.93581 -10.77756,-7.48645 -1.90192,-4.67903 -19.019231,-3.74323 -43.744229,0 -71.639099,14.97291 -3.803846,2.80742 -8.875641,0.9358 H 13.76519 q -3.169871,-0.9358 0,-1.87161 6.973718,0 18.385256,-5.61484 29.796794,-12.16548 62.129484,-11.22968 5.705769,0.93581 6.97372,-3.74322 z"
     id="path107"
     style="stroke-width:0.770245" />
</svg>
