<?xml version="1.0" standalone="no"?>
<!DOCTYPE svg PUBLIC "-//W3C//DTD SVG 1.1//EN" "http://www.w3.org/Graphics/SVG/1.1/DTD/svg11.dtd" >
<svg xmlns="http://www.w3.org/2000/svg" xmlns:xlink="http://www.w3.org/1999/xlink" version="1.1" viewBox="-10 0 266 256">
   <path fill="currentColor"
d="M147 50l12 -3h1q4 -1 5 -3q1 -5 8 -2q8 1 15 3q2 0 2 3q0 2 -3 2q-18 0 -41 5q-1 4 -2 15q-3 16 -4 21q24 -4 46 -7q10 -1 15 -7q3 -5 13 -2l6 3l10 5q4 2 2 5t-6 2q-14 -8 -74 2q-6 0 -24 9q-2 10 -2 21q25 -7 42 -5q6 -1 14 11q1 4 5 4q7 6 1 11q-3 -1 -7 5
q-16 22 -34 33q-13 8 -19 -2q-2 -2 -1 -2q1 -1 4 0q5 2 17 -5q24 -15 26 -39q0 -11 -8 -12q-8 -4 -40 6v17q4 -1 6 -3q2 -3 8 -3h10q3 2 -1 5q-7 1 -24 7v13q2 0 4 -1q3 0 5 -1q1 -1 3 -2q1 -1 2 -1q2 -2 6 -2q9 0 14 1q0 4 -6 6q-15 2 -41 9q1 6 -2 6q-5 0 -9 -4
q-3 -4 -4 -2q-2 2 -8 -3q-3 -4 1 -8q3 -3 0 -5q-12 -14 -11 -23q0 -4 8 -11q5 -4 2 2q-6 4 -4 10q4 18 9 23q3 1 5 6q2 3 5 3q5 -2 6 1q4 -2 9 -2q1 -3 1 -14q-9 3 -20 3q-3 0 0 -1q4 -1 13 -4q5 -2 7 -3v-18q-16 8 -27 8q-2 -2 1 -4q14 -3 26 -8q0 -12 -1 -20q-1 1 -2 1
q-1 1 -2 1q-3 0 -1 -2q2 -1 3 -1l2 -1v-3q-65 15 -85 22q-10 3 -18 0q-2 0 -2 -1t3 -2q19 -5 57 -13q17 -4 25 -6q1 -9 1 -33q-8 1 -28 6q-4 2 -13 -2l-2 -2q0 -1 2 -1q11 0 15 -1t13 -3l12 -3q-1 -38 -11 -42q-4 -3 1 -2q4 1 10 4q3 1 5 2q3 1 3 2q1 0 -1 2q-2 1 -2 7
q1 3 1 13q1 8 1 13q12 -4 35 -8q2 -14 2 -28q0 -12 -1 -16q0 -2 2 0q6 2 11 7q2 1 0 3q-3 5 -4 13q-1 11 -4 20zM104 98q7 -1 20 -4q7 -1 10 -2q1 -5 4 -23q1 -9 2 -13q-22 4 -34 8q0 12 -2 34zM128 195q-5 -3 1 -2q48 13 70 31q5 6 0 8q-13 2 -18 -4q-17 -20 -53 -33z
M112 186q1 6 -2 13q-9 19 -34 31q-4 1 -5 0q0 -2 3 -3q28 -15 36 -42q2 -5 2 1zM132 95q-1 0 -3 1l-1 2q7 -3 4 -3z" />
</svg>
